<svg t="1775293916444" class="icon" viewBox="0 0 1033 1024" version="1.1" xmlns="http://www.w3.org/2000/svg" p-id="13731" width="64" height="64"><path d="M608 291.2h233.6c12.8 0 25.6-12.8 25.6-25.6 0-16-12.8-25.6-25.6-25.6H608c-12.8 0-25.6 12.8-25.6 25.6-3.2 12.8 9.6 25.6 25.6 25.6z m310.4 73.6H704c-12.8 0-25.6 12.8-25.6 25.6 0 16 12.8 25.6 25.6 25.6h214.4c12.8 0 25.6-12.8 25.6-25.6s-12.8-25.6-25.6-25.6z m-291.2 0H608c-12.8 0-25.6 12.8-25.6 25.6 0 16 12.8 25.6 25.6 25.6h19.2c12.8 0 25.6-12.8 25.6-25.6s-12.8-25.6-25.6-25.6z m291.2 89.6H704c-12.8 0-25.6 12.8-25.6 25.6 0 16 12.8 25.6 25.6 25.6h214.4c12.8 0 25.6-12.8 25.6-25.6s-12.8-25.6-25.6-25.6z m-291.2 0H608c-12.8 0-25.6 12.8-25.6 25.6 0 16 12.8 25.6 25.6 25.6h19.2c12.8 0 25.6-12.8 25.6-25.6s-12.8-25.6-25.6-25.6z m291.2 89.6H704c-12.8 0-25.6 12.8-25.6 25.6 0 16 12.8 25.6 25.6 25.6h214.4c12.8 0 25.6-12.8 25.6-25.6s-12.8-25.6-25.6-25.6z m-291.2 0H608c-12.8 0-25.6 12.8-25.6 25.6 0 16 12.8 25.6 25.6 25.6h19.2c12.8 0 25.6-12.8 25.6-25.6s-12.8-25.6-25.6-25.6z m-236.8-124.8H320v-96c0-12.8-9.6-22.4-22.4-22.4-12.8 0-22.4 9.6-22.4 22.4V448l3.2 3.2v3.2c3.2 6.4 9.6 9.6 19.2 9.6h92.8c12.8 0 22.4-9.6 22.4-22.4 0-12.8-9.6-22.4-22.4-22.4zM297.6 224C246.4 224 198.4 246.4 160 281.6c-38.4 38.4-57.6 86.4-57.6 137.6 0 51.2 19.2 102.4 57.6 137.6 38.4 38.4 86.4 57.6 137.6 57.6 51.2 0 102.4-19.2 137.6-57.6 38.4-38.4 57.6-86.4 57.6-137.6s-19.2-102.4-57.6-137.6C400 246.4 348.8 224 297.6 224z m0 345.6c-41.6 0-76.8-16-105.6-44.8-28.8-28.8-44.8-67.2-44.8-105.6 0-41.6 16-76.8 44.8-105.6 28.8-28.8 67.2-44.8 105.6-44.8 41.6 0 76.8 16 105.6 44.8 28.8 28.8 44.8 67.2 44.8 105.6 0 41.6-16 76.8-44.8 105.6-25.6 28.8-64 44.8-105.6 44.8zM1027.2 124.8c0-32-12.8-60.8-54.4-64-19.2-3.2-38.4-3.2-57.6-3.2H163.2c-38.4 0-76.8 0-115.2 3.2C22.4 64 6.4 86.4 3.2 112c0 19.2-3.2 35.2-3.2 54.4v604.8c0 28.8 19.2 44.8 44.8 51.2 19.2 3.2 35.2 3.2 54.4 3.2h323.2v54.4c0 16 0 22.4-12.8 25.6H272c-6.4 0-9.6 9.6-9.6 19.2v22.4c0 9.6 3.2 19.2 9.6 19.2h483.2c6.4 0 9.6-9.6 9.6-19.2v-22.4c0-9.6-3.2-19.2-9.6-19.2h-137.6c-16 0-12.8-3.2-12.8-28.8v-16-35.2h364.8c9.6 0 22.4-3.2 32-9.6 25.6-12.8 32-35.2 32-60.8v-281.6c-6.4-112-6.4-230.4-6.4-348.8zM486.4 752c0-16 12.8-25.6 25.6-25.6s25.6 12.8 25.6 25.6c0 16-12.8 25.6-25.6 25.6-12.8 3.2-25.6-9.6-25.6-25.6z m480-396.8v320c0 16-9.6 22.4-25.6 25.6H96c-28.8 0-38.4-6.4-38.4-35.2v-131.2-172.8-185.6c0-25.6 6.4-32 32-32h844.8c19.2 0 25.6 6.4 25.6 25.6v92.8c6.4 28.8 6.4 60.8 6.4 92.8z" fill="#666666" p-id="13732"></path></svg>